<svg width="206" height="312" viewBox="0 0 206 312" fill="none" xmlns="http://www.w3.org/2000/svg">
<g filter="url(#filter0_dddddd_1567_19074)">
<rect x="80" width="46" height="132" rx="8" fill="white"/>
</g>
<path d="M98.1049 25.2102C98.7586 25.4693 99.3005 25.9497 99.6361 26.5676C99.9717 27.1855 100.08 27.9016 99.9413 28.5909C99.8028 29.2803 99.4267 29.8992 98.8786 30.3396C98.3304 30.7799 97.645 31.0138 96.942 31.0005C96.239 30.9871 95.563 30.7273 95.032 30.2665C94.501 29.8056 94.1486 29.1729 94.0365 28.4787C93.9243 27.7846 94.0595 27.0731 94.4183 26.4685C94.7771 25.8638 95.3369 25.4043 95.9999 25.1702V18.8302C95.3325 18.5943 94.7699 18.13 94.4116 17.5194C94.0533 16.9088 93.9225 16.1912 94.0421 15.4934C94.1618 14.7957 94.5243 14.1627 95.0656 13.7064C95.6068 13.25 96.292 12.9997 96.9999 12.9997C97.7079 12.9997 98.3931 13.25 98.9343 13.7064C99.4756 14.1627 99.8381 14.7957 99.9578 15.4934C100.077 16.1912 99.9466 16.9088 99.5883 17.5194C99.23 18.13 98.6674 18.5943 97.9999 18.8302V22.0002C98.8359 21.3722 99.8739 21.0002 101 21.0002H105C105.658 21.0003 106.298 20.7839 106.821 20.3846C107.344 19.9853 107.721 19.4251 107.895 18.7902C107.238 18.5301 106.694 18.0467 106.359 17.4249C106.023 16.8032 105.918 16.083 106.061 15.3913C106.205 14.6995 106.587 14.0805 107.142 13.6432C107.697 13.2058 108.388 12.9783 109.094 13.0005C109.8 13.0228 110.476 13.2934 111.002 13.7647C111.528 14.2361 111.871 14.878 111.971 15.5774C112.07 16.2768 111.92 16.9889 111.546 17.5883C111.172 18.1877 110.599 18.636 109.927 18.8542C109.726 20.0149 109.121 21.0672 108.22 21.8257C107.318 22.5842 106.178 23.0001 105 23.0002H101C100.342 23.0002 99.702 23.2165 99.1789 23.6158C98.6557 24.0152 98.2784 24.5754 98.1049 25.2102ZM96.9999 27.0002C96.7347 27.0002 96.4804 27.1056 96.2928 27.2931C96.1053 27.4807 95.9999 27.735 95.9999 28.0002C95.9999 28.2654 96.1053 28.5198 96.2928 28.7073C96.4804 28.8949 96.7347 29.0002 96.9999 29.0002C97.2652 29.0002 97.5195 28.8949 97.7071 28.7073C97.8946 28.5198 97.9999 28.2654 97.9999 28.0002C97.9999 27.735 97.8946 27.4807 97.7071 27.2931C97.5195 27.1056 97.2652 27.0002 96.9999 27.0002ZM96.9999 15.0002C96.7347 15.0002 96.4804 15.1056 96.2928 15.2931C96.1053 15.4807 95.9999 15.735 95.9999 16.0002C95.9999 16.2654 96.1053 16.5198 96.2928 16.7073C96.4804 16.8949 96.7347 17.0002 96.9999 17.0002C97.2652 17.0002 97.5195 16.8949 97.7071 16.7073C97.8946 16.5198 97.9999 16.2654 97.9999 16.0002C97.9999 15.735 97.8946 15.4807 97.7071 15.2931C97.5195 15.1056 97.2652 15.0002 96.9999 15.0002ZM109 15.0002C108.735 15.0002 108.48 15.1056 108.293 15.2931C108.105 15.4807 108 15.735 108 16.0002C108 16.2654 108.105 16.5198 108.293 16.7073C108.48 16.8949 108.735 17.0002 109 17.0002C109.265 17.0002 109.52 16.8949 109.707 16.7073C109.895 16.5198 110 16.2654 110 16.0002C110 15.735 109.895 15.4807 109.707 15.2931C109.52 15.1056 109.265 15.0002 109 15.0002Z" fill="#5A5A89"/>
<path d="M106.874 66.9999C106.652 67.8581 106.15 68.6182 105.449 69.1608C104.748 69.7034 103.887 69.9978 103 69.9978C102.113 69.9978 101.252 69.7034 100.551 69.1608C99.8496 68.6182 99.3484 67.8581 99.126 66.9999H94V64.9999H99.126C99.3484 64.1417 99.8496 63.3816 100.551 62.839C101.252 62.2964 102.113 62.002 103 62.002C103.887 62.002 104.748 62.2964 105.449 62.839C106.15 63.3816 106.652 64.1417 106.874 64.9999H112V66.9999H106.874ZM103 67.9999C103.53 67.9999 104.039 67.7892 104.414 67.4141C104.789 67.039 105 66.5303 105 65.9999C105 65.4695 104.789 64.9608 104.414 64.5857C104.039 64.2106 103.53 63.9999 103 63.9999C102.47 63.9999 101.961 64.2106 101.586 64.5857C101.211 64.9608 101 65.4695 101 65.9999C101 66.5303 101.211 67.039 101.586 67.4141C101.961 67.7892 102.47 67.9999 103 67.9999Z" fill="#5A5A89"/>
<path d="M106 103H108C108.53 103 109.039 103.211 109.414 103.586C109.789 103.961 110 104.47 110 105V113.17C110.668 113.406 111.23 113.87 111.588 114.481C111.947 115.091 112.078 115.809 111.958 116.507C111.838 117.205 111.476 117.838 110.934 118.294C110.393 118.75 109.708 119 109 119C108.292 119 107.607 118.75 107.066 118.294C106.524 117.838 106.162 117.205 106.042 116.507C105.923 115.809 106.053 115.091 106.412 114.481C106.77 113.87 107.333 113.406 108 113.17V105H106V108L101.5 104L106 100V103ZM96 106.83C95.3325 106.594 94.7699 106.13 94.4117 105.519C94.0534 104.909 93.9225 104.191 94.0422 103.493C94.1619 102.795 94.5244 102.162 95.0657 101.706C95.6069 101.25 96.2921 101 97 101C97.708 101 98.3931 101.25 98.9344 101.706C99.4757 102.162 99.8382 102.795 99.9578 103.493C100.078 104.191 99.9467 104.909 99.5884 105.519C99.2301 106.13 98.6675 106.594 98 106.83V113.17C98.6675 113.406 99.2301 113.87 99.5884 114.481C99.9467 115.091 100.078 115.809 99.9578 116.507C99.8382 117.205 99.4757 117.838 98.9344 118.294C98.3931 118.75 97.708 119 97 119C96.2921 119 95.6069 118.75 95.0657 118.294C94.5244 117.838 94.1619 117.205 94.0422 116.507C93.9225 115.809 94.0534 115.091 94.4117 114.481C94.7699 113.87 95.3325 113.406 96 113.17V106.83ZM97 105C97.2652 105 97.5196 104.895 97.7071 104.707C97.8947 104.52 98 104.265 98 104C98 103.735 97.8947 103.48 97.7071 103.293C97.5196 103.105 97.2652 103 97 103C96.7348 103 96.4805 103.105 96.2929 103.293C96.1054 103.48 96 103.735 96 104C96 104.265 96.1054 104.52 96.2929 104.707C96.4805 104.895 96.7348 105 97 105ZM97 117C97.2652 117 97.5196 116.895 97.7071 116.707C97.8947 116.52 98 116.265 98 116C98 115.735 97.8947 115.48 97.7071 115.293C97.5196 115.105 97.2652 115 97 115C96.7348 115 96.4805 115.105 96.2929 115.293C96.1054 115.48 96 115.735 96 116C96 116.265 96.1054 116.52 96.2929 116.707C96.4805 116.895 96.7348 117 97 117ZM109 117C109.265 117 109.52 116.895 109.707 116.707C109.895 116.52 110 116.265 110 116C110 115.735 109.895 115.48 109.707 115.293C109.52 115.105 109.265 115 109 115C108.735 115 108.48 115.105 108.293 115.293C108.105 115.48 108 115.735 108 116C108 116.265 108.105 116.52 108.293 116.707C108.48 116.895 108.735 117 109 117Z" fill="#5A5A89"/>
<defs>
<filter id="filter0_dddddd_1567_19074" x="0" y="0" width="206" height="312" filterUnits="userSpaceOnUse" color-interpolation-filters="sRGB">
<feFlood flood-opacity="0" result="BackgroundImageFix"/>
<feColorMatrix in="SourceAlpha" type="matrix" values="0 0 0 0 0 0 0 0 0 0 0 0 0 0 0 0 0 0 127 0" result="hardAlpha"/>
<feOffset dy="2.76726"/>
<feGaussianBlur stdDeviation="1.1069"/>
<feColorMatrix type="matrix" values="0 0 0 0 0.423529 0 0 0 0 0.286275 0 0 0 0 0.67451 0 0 0 0.0196802 0"/>
<feBlend mode="normal" in2="BackgroundImageFix" result="effect1_dropShadow_1567_19074"/>
<feColorMatrix in="SourceAlpha" type="matrix" values="0 0 0 0 0 0 0 0 0 0 0 0 0 0 0 0 0 0 127 0" result="hardAlpha"/>
<feOffset dy="6.6501"/>
<feGaussianBlur stdDeviation="2.66004"/>
<feColorMatrix type="matrix" values="0 0 0 0 0.423529 0 0 0 0 0.286275 0 0 0 0 0.67451 0 0 0 0.0282725 0"/>
<feBlend mode="normal" in2="effect1_dropShadow_1567_19074" result="effect2_dropShadow_1567_19074"/>
<feColorMatrix in="SourceAlpha" type="matrix" values="0 0 0 0 0 0 0 0 0 0 0 0 0 0 0 0 0 0 127 0" result="hardAlpha"/>
<feOffset dy="12.5216"/>
<feGaussianBlur stdDeviation="5.00862"/>
<feColorMatrix type="matrix" values="0 0 0 0 0.423529 0 0 0 0 0.286275 0 0 0 0 0.67451 0 0 0 0.035 0"/>
<feBlend mode="normal" in2="effect2_dropShadow_1567_19074" result="effect3_dropShadow_1567_19074"/>
<feColorMatrix in="SourceAlpha" type="matrix" values="0 0 0 0 0 0 0 0 0 0 0 0 0 0 0 0 0 0 127 0" result="hardAlpha"/>
<feOffset dy="22.3363"/>
<feGaussianBlur stdDeviation="8.93452"/>
<feColorMatrix type="matrix" values="0 0 0 0 0.423529 0 0 0 0 0.286275 0 0 0 0 0.67451 0 0 0 0.0417275 0"/>
<feBlend mode="normal" in2="effect3_dropShadow_1567_19074" result="effect4_dropShadow_1567_19074"/>
<feColorMatrix in="SourceAlpha" type="matrix" values="0 0 0 0 0 0 0 0 0 0 0 0 0 0 0 0 0 0 127 0" result="hardAlpha"/>
<feOffset dy="41.7776"/>
<feGaussianBlur stdDeviation="16.711"/>
<feColorMatrix type="matrix" values="0 0 0 0 0.423529 0 0 0 0 0.286275 0 0 0 0 0.67451 0 0 0 0.0503198 0"/>
<feBlend mode="normal" in2="effect4_dropShadow_1567_19074" result="effect5_dropShadow_1567_19074"/>
<feColorMatrix in="SourceAlpha" type="matrix" values="0 0 0 0 0 0 0 0 0 0 0 0 0 0 0 0 0 0 127 0" result="hardAlpha"/>
<feOffset dy="100"/>
<feGaussianBlur stdDeviation="40"/>
<feColorMatrix type="matrix" values="0 0 0 0 0.423529 0 0 0 0 0.286275 0 0 0 0 0.67451 0 0 0 0.07 0"/>
<feBlend mode="normal" in2="effect5_dropShadow_1567_19074" result="effect6_dropShadow_1567_19074"/>
<feBlend mode="normal" in="SourceGraphic" in2="effect6_dropShadow_1567_19074" result="shape"/>
</filter>
</defs>
</svg>
